<?xml version="1.0" encoding="UTF-8" standalone="no"?>
<svg
   xmlns:dc="http://purl.org/dc/elements/1.1/"
   xmlns:cc="http://creativecommons.org/ns#"
   xmlns:rdf="http://www.w3.org/1999/02/22-rdf-syntax-ns#"
   xmlns:svg="http://www.w3.org/2000/svg"
   xmlns="http://www.w3.org/2000/svg"
   height="93.006424"
   width="396.42374"
   xml:space="preserve"
   viewBox="-54.8 133.8 396.42373 93.006426"
   y="0px"
   x="0px"
   id="Logo_Couleur_1_"
   version="1.1"><metadata
     id="metadata88"><rdf:RDF><cc:Work
         rdf:about=""><dc:format>image/svg+xml</dc:format><dc:type
           rdf:resource="http://purl.org/dc/dcmitype/StillImage" /><dc:title></dc:title></cc:Work></rdf:RDF></metadata><defs
     id="defs86" /><style
     id="style2"
     type="text/css">
	.st0{fill:#1C5B8D;}
	.st1{fill:#AAC5DE;}
	.st2{display:none;}
	.st3{display:inline;}
	.st4{font-family:'Calibri-Bold';}
	.st5{font-size:55px;}
	.st6{font-size:37px;}
	.st7{letter-spacing:11;}
	.st8{letter-spacing:5;}
	.st9{display:inline;fill:#5788BE;}
	.st10{fill:#5788BE;}
</style><g
     transform="translate(-224.77243,-240.9)"
     id="Logo_Couleur"><g
       id="Squ-sh_copy_2"><g
         style="fill:#ffffff"
         id="path3749_2_"><path
           style="fill:#ffffff"
           id="path4"
           d="m 206.8,406.1 c 1.2,-4 -1.8,-4 -8,-4.1 -6.2,0 -10.4,0 -11.8,4.4 -1,3.3 0.2,3.5 10.3,3.8 11.3,0.4 21.7,-0.2 18.3,10.8 -2.8,9.1 -13.4,10 -25.7,10 -13.2,0 -22.1,0 -18.7,-11 h 11.6 c -1.3,4.9 0.2,5.5 8.8,5.5 6.9,0 11,0.1 12.4,-4.5 0.9,-3 1.1,-4.4 -10.6,-4.6 -17.8,-0.2 -20.5,-1.9 -17.9,-10.5 2.8,-9.2 12.5,-9.4 25,-9.4 9.5,0 20.8,0.2 18,9.6 z"
           class="st0" /></g><g
         style="fill:#ffffff"
         id="g11"><g
           style="fill:#ffffff"
           id="g9"><path
             style="fill:#ffffff"
             id="path7"
             d="m 261,396.5 -1.1,5.6 h -0.4 c -1.6,-4.4 -6.7,-5.5 -13.5,-5.5 -18,0 -21,7.9 -24.2,18.2 -3,9.9 -3,16.2 13.6,16.3 5.9,0 12.3,-0.7 16.1,-4.9 h 0.5 l -5.8,19.1 h 11.6 l 14.8,-48.7 z m -4.9,16.4 c -2.5,8 -3.4,12.1 -15.3,12 -10.6,0 -9,-4.4 -6.7,-12.1 2.6,-8.5 5.4,-10.1 13.4,-10.1 10.1,0.1 10.8,3 8.6,10.2 z"
             class="st0" /></g></g><g
         style="fill:#ffffff"
         id="path3753_1_"><path
           style="fill:#ffffff"
           id="path13"
           d="m 303.5,430.7 1.6,-5.2 h -0.4 c -4.1,4.5 -10.4,5.6 -17.1,5.6 -9.7,0 -15.5,-2.3 -13.3,-9.7 l 7.5,-24.9 h 11.6 l -6.5,21.7 c -1.5,4.8 -1.4,6.7 6.1,6.7 9,0 12.6,-2.6 14.4,-8.4 l 5.9,-19.9 h 11.6 l -10.3,34.2 z"
           class="st0" /></g><g
         style="fill:#ffffff"
         id="path3755_1_"><path
           style="fill:#ffffff"
           id="path16"
           d="m 451.4,382.3 h -11.6 l -14.9,48.6 h 11.7 l 0.3,-0.9 v 0 l 6.1,-19.9 c 1.8,-5.8 5.5,-8.5 14.4,-8.4 7.5,0 7.6,1.9 6.1,6.7 l -6.5,22.5 h 11.6 l 7.5,-25.7 c 2.2,-7.4 -3.6,-9.7 -13.3,-9.7 -6.7,0 -13,1.1 -17.1,5.6 v 0 z"
           class="st0" /></g><g
         style="fill:#ffffff"
         id="path3757_1_"><path
           style="fill:#ffffff"
           id="path19"
           d="m 411.4,406.1 c 1.3,-4 -1.8,-4.1 -8,-4.2 -6.2,-0.1 -10.4,-0.2 -11.9,4.3 -1.1,3.3 0.2,3.5 10.3,3.9 11.3,0.6 21.7,0.1 18.2,11 -2.9,9.1 -13.5,9.8 -25.8,9.6 -13.2,-0.2 -22.1,-0.3 -18.6,-11.3 l 11.6,0.2 c -1.4,4.9 0.1,5.5 8.7,5.6 6.9,0.1 11,0.3 12.4,-4.3 0.9,-2.9 1.1,-4.4 -10.6,-4.7 -17.8,-0.5 -20.5,-2.2 -17.7,-10.7 2.9,-9.2 12.6,-9.3 25.1,-9.1 9.5,0.1 20.8,0.4 17.8,9.8 z"
           class="st0" /></g><g
         style="fill:#ffffff"
         id="g26"><g
           style="fill:#ffffff"
           id="g24"><path
             style="fill:#ffffff"
             id="path22"
             d="m 356.9,426.2 h -0.3 c -3.6,4.6 -10.8,4.8 -16.5,4.9 -11.1,0.2 -17.8,-1.3 -15.1,-10.6 2.3,-8.2 9.1,-10.6 21.3,-10.8 6,-0.1 11.8,-0.1 13.5,3.7 h 0.4 l 1.3,-4.4 c 1.6,-5.5 1.5,-7.5 -8.3,-7.3 -5.1,0.1 -9.3,0.5 -10.6,4.9 l -11.7,0.2 c 2.8,-9.9 12.7,-10.5 23.9,-10.7 15.6,-0.3 21.7,1.3 18.4,12.8 l -6.1,21.4 -11.7,0.2 z m -20.2,-5.9 c -1.4,4.8 1.3,5.2 9.2,5.1 6.2,-0.1 10.9,-0.6 12.3,-5.4 1.4,-4.7 -3.6,-4.8 -9.4,-4.7 -6,0.1 -10.7,0.2 -12.1,5 z"
             class="st0" /></g></g></g><g
       style="fill:#ffffff"
       id="Vague_copy_2"><g
         style="fill:#ffffff"
         id="g31"><path
           style="fill:#ffffff"
           id="path29"
           d="m 324,466.7 c 9,0 24.4,1.1 33.4,1 7.3,-0.1 14.5,-0.4 21.8,-0.8 32,-2 63.6,-6.7 93.7,-14 14,-3.4 27.6,-7.4 40.7,-12.2 10.7,-3.9 21.2,-8.4 30.6,-13.9 7,-4.1 13.7,-8.7 18.2,-14.6 3.2,-4.2 5.1,-9.1 3.3,-14.1 -1,-2.6 -2.8,-4.9 -5.2,-6.9 -5,-4.2 -11.9,-6.9 -18.7,-8.9 -9.4,-2.8 -19.4,-4.4 -29.2,-5.4 -6.1,-0.6 -12.3,-1.1 -18.4,-1.4 -3.9,-0.2 -7.9,-0.3 -11.9,-0.4 -14.6,-0.3 -29.2,-0.4 -43.8,-0.4 l 14.3,1.2 c 10.2,0.7 15.3,1.3 25.4,3.4 8,1.6 16.2,3.9 23.2,7.5 5.1,2.7 9.7,6.3 11.3,10.9 0.2,0.5 0.4,1.1 0.5,1.6 1.1,5.2 -1.6,10.1 -5.2,14.2 -5.2,5.8 -12.3,10.5 -19.8,14.5 -9.9,5.4 -20.8,9.9 -32,13.8 -13.5,4.7 -27.5,8.6 -41.8,11.9 -30.1,6.9 -58.8,11.2 -90.6,12.8 z"
           class="st1" /></g></g></g><g
     transform="translate(-224.77243,-240.9)"
     id="Modules"><g
       style="display:none"
       class="st2"
       id="Construction"><g
         style="display:inline"
         class="st3"
         id="Fond_1_"><path
           style="fill:#aac5de"
           id="path35"
           d="m 265.5,493 c 0,3.9 -3.1,7 -7,7 H 179 c -3.9,0 -7,-3.1 -7,-7 v -34 c 0,-3.9 3.1,-7 7,-7 h 79.5 c 3.9,0 7,3.1 7,7 z"
           class="st1" /></g><g
         style="display:inline"
         class="st3"
         id="Data"><text
   id="text42"
   transform="translate(176.4587,493.1433)"><tspan
     style="font-size:55px;font-family:Calibri-Bold"
     id="tspan38"
     class="st4 st5"
     y="0"
     x="0">D</tspan><tspan
     style="font-size:37px;font-family:Calibri-Bold"
     id="tspan40"
     class="st4 st6"
     y="-1"
     x="34.700001">ata</tspan></text>
</g><g
         style="display:inline"
         class="st3"
         id="SC"><text
   style="font-size:55px;font-family:Calibri-Bold;letter-spacing:11"
   id="text45"
   class="st4 st5 st7"
   transform="translate(185.9192,493.1433)">SC</text>
</g><g
         style="display:inline"
         class="st3"
         id="AT"><text
   style="font-size:55px;font-family:Calibri-Bold;letter-spacing:11"
   id="text48"
   class="st4 st5 st7"
   transform="translate(183.1931,493.1433)">TA</text>
</g><g
         style="display:inline"
         class="st3"
         id="AT_-_copie"><text
   style="font-size:55px;font-family:Calibri-Bold;letter-spacing:11"
   id="text51"
   class="st4 st5 st7"
   transform="translate(187.2351,493.1433)">TF</text>
</g><g
         style="display:inline"
         class="st3"
         id="TM"><text
   style="font-size:55px;font-family:Calibri-Bold;letter-spacing:5"
   id="text54"
   class="st4 st5 st8"
   transform="translate(178.5715,493.1433)">TM</text>
</g></g><g
       style="display:none"
       class="st2"
       id="Data_copy"><path
         style="display:inline;fill:#5788be"
         id="path58"
         d="m 219.4,484.8 c -0.5,0.1 -0.9,0.3 -1.3,0.5 -0.3,0.2 -0.6,0.5 -0.7,0.8 -0.2,0.3 -0.2,0.7 -0.2,1.1 0,0.7 0.2,1.2 0.6,1.6 0.4,0.4 1,0.6 1.8,0.6 0.6,0 1.2,-0.2 1.8,-0.5 0.5,-0.3 1.1,-0.8 1.6,-1.4 v -2.7 h -1.7 c -0.7,-0.1 -1.4,-0.1 -1.9,0 z m 30.4,0 c -0.5,0.1 -0.9,0.3 -1.3,0.5 -0.3,0.2 -0.6,0.5 -0.7,0.8 -0.2,0.3 -0.2,0.7 -0.2,1.1 0,0.7 0.2,1.2 0.6,1.6 0.4,0.4 1,0.6 1.8,0.6 0.6,0 1.2,-0.2 1.8,-0.5 0.5,-0.3 1.1,-0.8 1.6,-1.4 v -2.7 h -1.7 c -0.8,-0.1 -1.4,-0.1 -1.9,0 z m -50.1,-17.6 c -0.9,-1 -1.9,-1.8 -3.3,-2.4 -1.3,-0.6 -3.1,-0.9 -5.3,-0.9 h -3.6 v 23.6 h 3.7 c 1.9,0 3.6,-0.3 4.9,-0.8 1.3,-0.5 2.4,-1.3 3.3,-2.3 0.9,-1 1.5,-2.3 2,-3.8 0.4,-1.5 0.7,-3.3 0.7,-5.3 0,-1.6 -0.2,-3.2 -0.6,-4.6 -0.3,-1.2 -0.9,-2.4 -1.8,-3.5 z M 258.5,452 H 179 c -3.9,0 -7,3.1 -7,7 v 34 c 0,3.9 3.1,7 7,7 h 79.5 c 3.9,0 7,-3.1 7,-7 v -34 c 0,-3.8 -3.2,-7 -7,-7 z m -50.3,31.4 c -0.8,2.3 -2,4.1 -3.6,5.5 -1.6,1.4 -3.5,2.5 -5.7,3.2 -2.2,0.7 -4.9,1 -8,1 h -8.3 c -0.6,0 -1.1,-0.2 -1.5,-0.5 -0.4,-0.3 -0.6,-0.9 -0.6,-1.7 v -30.3 c 0,-0.8 0.2,-1.4 0.6,-1.7 0.4,-0.3 0.9,-0.5 1.5,-0.5 h 8.9 c 3.1,0 5.7,0.4 7.9,1.1 2.2,0.7 4,1.8 5.5,3.2 1.5,1.4 2.6,3.2 3.4,5.3 0.8,2.1 1.2,4.5 1.2,7.3 0,3.1 -0.4,5.9 -1.3,8.1 z m 19.3,8.2 c 0,0.2 -0.1,0.3 -0.2,0.4 -0.1,0.1 -0.3,0.2 -0.6,0.2 -0.3,0 -0.6,0.1 -1.1,0.1 -0.5,0 -0.9,0 -1.2,-0.1 -0.2,0 -0.4,-0.1 -0.5,-0.2 -0.1,-0.1 -0.2,-0.2 -0.2,-0.4 v -1.3 c -0.7,0.7 -1.4,1.3 -2.3,1.7 -0.8,0.4 -1.8,0.6 -2.8,0.6 -0.9,0 -1.6,-0.1 -2.4,-0.3 -0.7,-0.2 -1.3,-0.6 -1.9,-1 -0.5,-0.4 -0.9,-1 -1.2,-1.6 -0.3,-0.7 -0.4,-1.4 -0.4,-2.3 0,-0.9 0.2,-1.8 0.6,-2.4 0.4,-0.7 0.9,-1.3 1.6,-1.7 0.7,-0.5 1.6,-0.8 2.7,-1 1.1,-0.2 2.3,-0.3 3.8,-0.3 h 1.6 v -1 c 0,-0.5 -0.1,-0.9 -0.2,-1.3 -0.1,-0.4 -0.3,-0.7 -0.5,-0.9 -0.2,-0.3 -0.5,-0.4 -0.9,-0.6 -0.4,-0.1 -0.9,-0.2 -1.5,-0.2 -0.8,0 -1.4,0.1 -2,0.3 -0.6,0.2 -1.1,0.4 -1.6,0.6 -0.5,0.2 -0.8,0.4 -1.1,0.6 -0.3,0.2 -0.6,0.3 -0.8,0.3 -0.1,0 -0.3,0 -0.4,-0.1 -0.1,-0.1 -0.2,-0.2 -0.3,-0.4 -0.1,-0.2 -0.1,-0.3 -0.2,-0.6 0,-0.2 -0.1,-0.5 -0.1,-0.8 0,-0.4 0,-0.7 0.1,-0.9 0.1,-0.2 0.2,-0.4 0.3,-0.6 0.2,-0.2 0.5,-0.4 0.9,-0.6 0.4,-0.2 0.9,-0.4 1.5,-0.6 0.6,-0.2 1.2,-0.3 1.9,-0.4 0.7,-0.1 1.4,-0.2 2.1,-0.2 1.3,0 2.3,0.1 3.2,0.4 0.9,0.2 1.6,0.6 2.2,1.1 0.6,0.5 1,1.2 1.3,2 0.3,0.8 0.4,1.8 0.4,2.9 v 10.6 z m 9.9,-3.6 c 0.3,0.4 0.8,0.7 1.5,0.7 0.2,0 0.5,0 0.7,-0.1 0.2,0 0.4,-0.1 0.5,-0.1 0.2,-0.1 0.3,-0.1 0.4,-0.1 0.1,0 0.2,-0.1 0.3,-0.1 0.1,0 0.1,0 0.2,0.1 0.1,0 0.1,0.1 0.2,0.3 0,0.1 0.1,0.3 0.1,0.5 0,0.2 0,0.5 0,0.8 0,0.5 0,0.9 -0.1,1.2 -0.1,0.3 -0.2,0.5 -0.3,0.6 -0.1,0.1 -0.3,0.2 -0.5,0.3 -0.2,0.1 -0.5,0.2 -0.7,0.2 -0.3,0.1 -0.6,0.1 -0.9,0.2 -0.3,0 -0.7,0.1 -1,0.1 -0.9,0 -1.7,-0.1 -2.3,-0.3 -0.7,-0.2 -1.2,-0.6 -1.6,-1.1 -0.4,-0.5 -0.8,-1.1 -1,-1.8 -0.2,-0.7 -0.3,-1.6 -0.3,-2.6 v -8.3 h -1.9 c -0.2,0 -0.4,-0.1 -0.5,-0.4 -0.1,-0.3 -0.2,-0.8 -0.2,-1.4 0,-0.3 0,-0.6 0,-0.9 0,-0.2 0.1,-0.4 0.1,-0.6 0.1,-0.1 0.1,-0.2 0.2,-0.3 0.1,-0.1 0.2,-0.1 0.3,-0.1 h 1.9 v -3.6 c 0,-0.1 0,-0.2 0.1,-0.3 0.1,-0.1 0.2,-0.2 0.4,-0.2 0.2,-0.1 0.4,-0.1 0.7,-0.1 0.3,0 0.7,0 1.1,0 0.4,0 0.8,0 1.1,0 0.3,0 0.5,0.1 0.7,0.1 0.2,0.1 0.3,0.1 0.4,0.2 0.1,0.1 0.1,0.2 0.1,0.3 v 3.6 h 3.5 c 0.1,0 0.2,0 0.3,0.1 0.1,0.1 0.2,0.2 0.2,0.3 0.1,0.1 0.1,0.3 0.1,0.6 0,0.2 0,0.5 0,0.9 0,0.7 -0.1,1.1 -0.2,1.4 -0.1,0.3 -0.3,0.4 -0.5,0.4 H 237 v 7.6 c 0,0.8 0.1,1.5 0.4,1.9 z m 20.5,3.6 c 0,0.2 -0.1,0.3 -0.2,0.4 -0.1,0.1 -0.3,0.2 -0.6,0.2 -0.3,0 -0.6,0.1 -1.1,0.1 -0.5,0 -0.9,0 -1.2,-0.1 -0.2,0 -0.4,-0.1 -0.5,-0.2 -0.1,-0.1 -0.2,-0.2 -0.2,-0.4 v -1.3 c -0.7,0.7 -1.4,1.3 -2.3,1.7 -0.8,0.4 -1.8,0.6 -2.8,0.6 -0.9,0 -1.6,-0.1 -2.4,-0.3 -0.7,-0.2 -1.3,-0.6 -1.9,-1 -0.5,-0.4 -0.9,-1 -1.2,-1.6 -0.3,-0.7 -0.4,-1.4 -0.4,-2.3 0,-0.9 0.2,-1.8 0.6,-2.4 0.4,-0.7 0.9,-1.3 1.6,-1.7 0.7,-0.5 1.6,-0.8 2.7,-1 1.1,-0.2 2.3,-0.3 3.8,-0.3 h 1.6 v -1 c 0,-0.5 -0.1,-0.9 -0.2,-1.3 -0.1,-0.4 -0.3,-0.7 -0.5,-0.9 -0.2,-0.3 -0.5,-0.4 -0.9,-0.6 -0.4,-0.1 -0.9,-0.2 -1.5,-0.2 -0.8,0 -1.4,0.1 -2,0.3 -0.6,0.2 -1.1,0.4 -1.6,0.6 -0.5,0.2 -0.8,0.4 -1.1,0.6 -0.3,0.2 -0.6,0.3 -0.8,0.3 -0.1,0 -0.3,0 -0.4,-0.1 -0.1,-0.1 -0.2,-0.2 -0.3,-0.4 -0.1,-0.2 -0.1,-0.3 -0.2,-0.6 0,-0.2 -0.1,-0.5 -0.1,-0.8 0,-0.4 0,-0.7 0.1,-0.9 0.1,-0.2 0.2,-0.4 0.3,-0.6 0.2,-0.2 0.5,-0.4 0.9,-0.6 0.4,-0.2 0.9,-0.4 1.5,-0.6 0.6,-0.2 1.2,-0.3 1.9,-0.4 0.7,-0.1 1.4,-0.2 2.1,-0.2 1.3,0 2.3,0.1 3.2,0.4 0.9,0.2 1.6,0.6 2.2,1.1 0.6,0.5 1,1.2 1.3,2 0.3,0.8 0.4,1.8 0.4,2.9 v 10.6 z"
         class="st9" /></g><g
       style="display:none"
       class="st2"
       id="Util"><path
         style="display:inline;fill:#5788be"
         id="path61"
         d="M 258.5,452 H 179 c -3.9,0 -7,3.1 -7,7 v 34 c 0,3.9 3.1,7 7,7 h 79.5 c 3.9,0 7,-3.1 7,-7 v -34 c 0,-3.8 -3.2,-7 -7,-7 z m -42.6,28.2 c 0,2.1 -0.3,4 -0.9,5.7 -0.6,1.7 -1.5,3.1 -2.8,4.3 -1.2,1.2 -2.7,2 -4.5,2.7 -1.8,0.6 -3.8,0.9 -6.2,0.9 -2.2,0 -4.1,-0.3 -5.9,-0.8 -1.7,-0.5 -3.2,-1.4 -4.4,-2.5 -1.2,-1.1 -2.1,-2.5 -2.8,-4.1 -0.6,-1.7 -1,-3.6 -1,-5.8 v -21.1 c 0,-0.2 0.1,-0.3 0.2,-0.5 0.1,-0.1 0.3,-0.3 0.6,-0.3 0.3,-0.1 0.6,-0.2 1.1,-0.2 0.4,-0.1 1,-0.1 1.7,-0.1 0.7,0 1.2,0 1.7,0.1 0.4,0.1 0.8,0.1 1.1,0.2 0.3,0.1 0.5,0.2 0.6,0.3 0.1,0.1 0.2,0.3 0.2,0.5 V 480 c 0,1.4 0.2,2.6 0.5,3.6 0.3,1 0.8,1.8 1.5,2.5 0.6,0.7 1.4,1.2 2.3,1.5 0.9,0.3 1.9,0.5 3,0.5 1.1,0 2.1,-0.2 3,-0.5 0.9,-0.3 1.6,-0.8 2.2,-1.5 0.6,-0.7 1.1,-1.5 1.4,-2.4 0.3,-1 0.5,-2 0.5,-3.3 v -20.9 c 0,-0.2 0.1,-0.3 0.2,-0.5 0.1,-0.1 0.3,-0.3 0.6,-0.3 0.3,-0.1 0.6,-0.2 1.1,-0.2 0.5,-0.1 1,-0.1 1.7,-0.1 0.7,0 1.2,0 1.7,0.1 0.4,0.1 0.8,0.1 1.1,0.2 0.3,0.1 0.5,0.2 0.6,0.3 0.1,0.1 0.2,0.3 0.2,0.5 v 20.7 z m 23.1,11.3 c 0,0.1 0,0.2 -0.1,0.3 -0.1,0.1 -0.2,0.2 -0.4,0.2 -0.2,0.1 -0.4,0.1 -0.7,0.1 -0.3,0 -0.7,0 -1.1,0 -0.4,0 -0.8,0 -1.1,0 -0.3,0 -0.5,-0.1 -0.7,-0.1 -0.2,-0.1 -0.3,-0.1 -0.4,-0.2 -0.1,-0.1 -0.1,-0.2 -0.1,-0.3 v -13 h -7.2 v 7.6 c 0,0.9 0.1,1.5 0.4,2 0.3,0.4 0.8,0.7 1.5,0.7 0.2,0 0.5,0 0.7,-0.1 0.2,0 0.4,-0.1 0.5,-0.1 0.2,-0.1 0.3,-0.1 0.4,-0.1 0.1,0 0.2,-0.1 0.3,-0.1 0.1,0 0.1,0 0.2,0.1 0.1,0 0.1,0.1 0.2,0.3 0,0.1 0.1,0.3 0.1,0.5 0,0.2 0,0.5 0,0.8 0,0.5 0,0.9 -0.1,1.2 -0.1,0.3 -0.1,0.5 -0.3,0.6 -0.1,0.1 -0.3,0.2 -0.5,0.3 -0.2,0.1 -0.5,0.2 -0.8,0.2 -0.3,0.1 -0.6,0.1 -0.9,0.2 -0.3,0 -0.7,0.1 -1,0.1 -0.9,0 -1.7,-0.1 -2.3,-0.3 -0.7,-0.2 -1.2,-0.6 -1.6,-1.1 -0.4,-0.5 -0.8,-1.1 -1,-1.8 -0.2,-0.7 -0.3,-1.6 -0.3,-2.6 v -8.3 h -1.9 c -0.2,0 -0.4,-0.1 -0.5,-0.4 -0.1,-0.3 -0.2,-0.8 -0.2,-1.4 0,-0.3 0,-0.6 0,-0.9 0,-0.2 0.1,-0.4 0.1,-0.6 0.1,-0.1 0.1,-0.2 0.2,-0.3 0.1,-0.1 0.2,-0.1 0.3,-0.1 h 1.9 v -3.6 c 0,-0.1 0,-0.2 0.1,-0.3 0.1,-0.1 0.2,-0.2 0.4,-0.2 0.2,-0.1 0.4,-0.1 0.7,-0.1 0.3,0 0.7,0 1.1,0 0.4,0 0.8,0 1.1,0 0.3,0 0.5,0.1 0.7,0.1 0.2,0.1 0.3,0.1 0.4,0.2 0.1,0.1 0.1,0.2 0.1,0.3 v 3.6 h 10.4 c 0.5,0 0.9,0.1 1.1,0.3 0.2,0.2 0.3,0.5 0.3,0.9 z m -0.2,-19.6 c -0.4,0.3 -1.1,0.5 -2.1,0.5 -1,0 -1.7,-0.2 -2.1,-0.5 -0.4,-0.3 -0.5,-0.9 -0.5,-1.8 0,-0.9 0.2,-1.6 0.6,-1.9 0.4,-0.4 1.1,-0.5 2.1,-0.5 1,0 1.7,0.2 2.1,0.5 0.4,0.3 0.5,1 0.5,1.8 0,0.9 -0.2,1.5 -0.6,1.9 z m 12.1,19.6 c 0,0.1 0,0.2 -0.1,0.3 -0.1,0.1 -0.2,0.2 -0.4,0.2 -0.2,0.1 -0.4,0.1 -0.7,0.1 -0.3,0 -0.7,0 -1.1,0 -0.4,0 -0.8,0 -1.1,0 -0.3,0 -0.5,-0.1 -0.7,-0.1 -0.2,-0.1 -0.3,-0.1 -0.4,-0.2 -0.1,-0.1 -0.1,-0.2 -0.1,-0.3 v -23.8 c 0,-0.1 0,-0.2 0.1,-0.3 0.1,-0.1 0.2,-0.2 0.4,-0.2 0.2,-0.1 0.4,-0.1 0.7,-0.2 0.3,0 0.7,-0.1 1.1,-0.1 0.4,0 0.8,0 1.1,0.1 0.3,0 0.5,0.1 0.7,0.2 0.2,0.1 0.3,0.1 0.4,0.2 0.1,0.1 0.1,0.2 0.1,0.3 z"
         class="st9" /></g><g
       style="display:none"
       class="st2"
       id="SC_copy"><path
         style="display:inline;fill:#5788be"
         id="path64"
         d="M 258.5,452 H 179 c -3.9,0 -7,3.1 -7,7 v 34 c 0,3.9 3.1,7 7,7 h 79.5 c 3.9,0 7,-3.1 7,-7 v -34 c 0,-3.8 -3.2,-7 -7,-7 z m -49.2,35.5 c -0.7,1.4 -1.6,2.5 -2.8,3.5 -1.2,0.9 -2.5,1.6 -4.1,2.1 -1.6,0.5 -3.2,0.7 -5,0.7 -1.2,0 -2.3,-0.1 -3.3,-0.3 -1,-0.2 -1.9,-0.4 -2.7,-0.7 -0.8,-0.3 -1.4,-0.6 -2,-0.9 -0.5,-0.3 -0.9,-0.6 -1.1,-0.8 -0.2,-0.2 -0.4,-0.6 -0.5,-1 -0.1,-0.4 -0.1,-1.1 -0.1,-1.9 0,-0.6 0,-1 0.1,-1.4 0,-0.4 0.1,-0.7 0.2,-0.9 0.1,-0.2 0.2,-0.4 0.3,-0.5 0.1,-0.1 0.3,-0.1 0.5,-0.1 0.3,0 0.6,0.1 1.1,0.4 0.5,0.3 1,0.6 1.8,1 0.7,0.4 1.6,0.7 2.6,1 1,0.3 2.1,0.4 3.5,0.4 0.9,0 1.6,-0.1 2.3,-0.3 0.7,-0.2 1.3,-0.5 1.7,-0.9 0.5,-0.4 0.8,-0.8 1.1,-1.4 0.3,-0.6 0.4,-1.2 0.4,-1.9 0,-0.8 -0.2,-1.5 -0.6,-2 -0.4,-0.6 -1,-1.1 -1.7,-1.5 -0.7,-0.4 -1.5,-0.8 -2.3,-1.2 -0.9,-0.4 -1.8,-0.8 -2.7,-1.2 -0.9,-0.4 -1.8,-0.9 -2.7,-1.5 -0.9,-0.5 -1.7,-1.2 -2.3,-2 -0.7,-0.8 -1.2,-1.7 -1.7,-2.7 -0.4,-1 -0.6,-2.3 -0.6,-3.7 0,-1.7 0.3,-3.1 0.9,-4.4 0.6,-1.3 1.5,-2.3 2.5,-3.1 1,-0.8 2.3,-1.5 3.7,-1.9 1.4,-0.4 2.9,-0.6 4.5,-0.6 0.8,0 1.6,0.1 2.5,0.2 0.8,0.1 1.6,0.3 2.3,0.5 0.7,0.2 1.4,0.5 1.9,0.7 0.6,0.3 0.9,0.5 1.1,0.7 0.2,0.2 0.3,0.3 0.4,0.5 0.1,0.1 0.1,0.3 0.2,0.5 0,0.2 0.1,0.5 0.1,0.8 0,0.3 0,0.7 0,1.2 0,0.5 0,1 0,1.3 0,0.4 -0.1,0.7 -0.1,0.9 -0.1,0.2 -0.2,0.4 -0.3,0.5 -0.1,0.1 -0.3,0.2 -0.5,0.2 -0.2,0 -0.5,-0.1 -0.9,-0.4 -0.4,-0.3 -1,-0.5 -1.6,-0.8 -0.6,-0.3 -1.4,-0.6 -2.2,-0.8 -0.8,-0.2 -1.7,-0.4 -2.7,-0.4 -0.8,0 -1.4,0.1 -2,0.3 -0.6,0.2 -1.1,0.4 -1.4,0.8 -0.4,0.3 -0.7,0.7 -0.9,1.2 -0.2,0.5 -0.3,1 -0.3,1.5 0,0.8 0.2,1.4 0.6,2 0.4,0.6 1,1.1 1.7,1.5 0.7,0.4 1.5,0.8 2.4,1.2 0.9,0.4 1.8,0.8 2.7,1.2 0.9,0.4 1.8,0.9 2.7,1.5 0.9,0.5 1.7,1.2 2.4,2 0.7,0.8 1.3,1.7 1.7,2.7 0.4,1 0.6,2.2 0.6,3.6 -0.4,1.6 -0.7,3.3 -1.4,4.6 z m 41.4,1.5 c 0,0.3 -0.1,0.6 -0.1,0.8 -0.1,0.2 -0.1,0.4 -0.2,0.6 -0.1,0.2 -0.2,0.3 -0.4,0.5 -0.2,0.2 -0.6,0.5 -1.1,0.8 -0.6,0.3 -1.3,0.6 -2.1,0.9 -0.8,0.3 -1.7,0.5 -2.8,0.7 -1,0.2 -2.2,0.3 -3.4,0.3 -2.4,0 -4.5,-0.4 -6.4,-1.1 -1.9,-0.7 -3.5,-1.8 -4.9,-3.3 -1.3,-1.5 -2.4,-3.3 -3.1,-5.5 -0.7,-2.2 -1.1,-4.7 -1.1,-7.6 0,-3 0.4,-5.6 1.2,-7.9 0.8,-2.3 1.9,-4.2 3.3,-5.8 1.4,-1.6 3.1,-2.7 5.1,-3.5 2,-0.8 4.2,-1.2 6.5,-1.2 1,0 1.9,0.1 2.8,0.2 0.9,0.2 1.7,0.4 2.5,0.6 0.8,0.3 1.4,0.6 2.1,0.9 0.6,0.3 1,0.6 1.3,0.9 0.2,0.2 0.4,0.4 0.5,0.6 0.1,0.2 0.2,0.4 0.2,0.6 0.1,0.3 0.1,0.5 0.1,0.9 0,0.3 0,0.8 0,1.3 0,0.5 0,1 -0.1,1.4 0,0.4 -0.1,0.7 -0.2,0.9 -0.1,0.2 -0.2,0.4 -0.3,0.5 -0.1,0.1 -0.3,0.2 -0.4,0.2 -0.3,0 -0.6,-0.2 -1,-0.5 -0.4,-0.3 -0.9,-0.7 -1.6,-1 -0.7,-0.4 -1.4,-0.7 -2.3,-1 -0.9,-0.3 -2,-0.5 -3.2,-0.5 -1.4,0 -2.6,0.3 -3.7,0.8 -1.1,0.6 -2,1.4 -2.8,2.4 -0.8,1 -1.3,2.3 -1.7,3.8 -0.4,1.5 -0.6,3.2 -0.6,5 0,2 0.2,3.8 0.6,5.3 0.4,1.5 1,2.7 1.8,3.7 0.8,1 1.7,1.7 2.8,2.2 1.1,0.5 2.3,0.7 3.7,0.7 1.3,0 2.3,-0.1 3.2,-0.4 0.9,-0.3 1.7,-0.6 2.4,-1 0.7,-0.4 1.2,-0.7 1.6,-1 0.4,-0.3 0.7,-0.4 1,-0.4 0.2,0 0.3,0 0.4,0.1 0.1,0.1 0.2,0.2 0.3,0.4 0.1,0.2 0.1,0.5 0.2,0.9 0,0.4 0.1,0.9 0.1,1.5 -0.2,0.6 -0.2,1 -0.2,1.3 z"
         class="st9" /></g><g
       style="display:none"
       class="st2"
       id="TF"><g
         style="display:inline"
         id="g69"
         class="st3"><path
           style="fill:#5788be"
           id="path67"
           d="M 258.5,452 H 179 c -3.9,0 -7,3.1 -7,7 v 34 c 0,3.9 3.1,7 7,7 h 79.5 c 3.9,0 7,-3.1 7,-7 v -34 c 0,-3.8 -3.2,-7 -7,-7 z m -44.4,10.6 c 0,0.4 -0.1,0.7 -0.2,0.9 -0.1,0.2 -0.2,0.4 -0.3,0.5 -0.1,0.1 -0.3,0.2 -0.4,0.2 h -8.7 v 28 c 0,0.2 -0.1,0.3 -0.2,0.5 -0.1,0.1 -0.3,0.3 -0.6,0.3 -0.3,0.1 -0.6,0.2 -1.1,0.2 -0.5,0.1 -1,0.1 -1.7,0.1 -0.7,0 -1.2,0 -1.7,-0.1 -0.5,-0.1 -0.8,-0.1 -1.1,-0.2 -0.3,-0.1 -0.5,-0.2 -0.6,-0.3 -0.1,-0.1 -0.2,-0.3 -0.2,-0.5 v -28 h -8.7 c -0.2,0 -0.3,-0.1 -0.5,-0.2 -0.1,-0.1 -0.2,-0.3 -0.3,-0.5 -0.1,-0.2 -0.2,-0.5 -0.2,-0.9 0,-0.4 -0.1,-0.8 -0.1,-1.3 0,-0.5 0,-1 0.1,-1.4 0,-0.4 0.1,-0.7 0.2,-0.9 0.1,-0.2 0.2,-0.4 0.3,-0.5 0.1,-0.1 0.3,-0.1 0.5,-0.1 h 24.5 c 0.2,0 0.3,0 0.4,0.1 0.1,0.1 0.2,0.3 0.3,0.5 0.1,0.2 0.2,0.5 0.2,0.9 0,0.4 0.1,0.8 0.1,1.4 0,0.5 0,1 0,1.3 z m 34.6,0 c 0,0.4 -0.1,0.7 -0.2,0.9 -0.1,0.2 -0.2,0.4 -0.3,0.5 -0.1,0.1 -0.3,0.2 -0.4,0.2 h -11.4 v 9.3 H 247 c 0.2,0 0.3,0 0.4,0.1 0.1,0.1 0.2,0.2 0.3,0.5 0.1,0.2 0.2,0.5 0.2,0.9 0,0.4 0.1,0.8 0.1,1.3 0,0.5 0,1 -0.1,1.3 0,0.4 -0.1,0.7 -0.2,0.9 -0.1,0.2 -0.2,0.4 -0.3,0.5 -0.1,0.1 -0.3,0.1 -0.4,0.1 H 236.3 V 492 c 0,0.2 -0.1,0.4 -0.2,0.5 -0.1,0.1 -0.3,0.3 -0.6,0.4 -0.3,0.1 -0.6,0.2 -1.1,0.2 -0.4,0.1 -1,0.1 -1.7,0.1 -0.7,0 -1.2,0 -1.7,-0.1 -0.5,-0.1 -0.8,-0.1 -1.1,-0.2 -0.3,-0.1 -0.5,-0.2 -0.6,-0.4 -0.1,-0.1 -0.2,-0.3 -0.2,-0.5 v -31.5 c 0,-0.8 0.2,-1.4 0.6,-1.7 0.4,-0.3 0.9,-0.5 1.5,-0.5 h 16.4 c 0.2,0 0.3,0 0.4,0.1 0.1,0.1 0.2,0.3 0.3,0.5 0.1,0.2 0.2,0.5 0.2,0.9 0,0.4 0.1,0.8 0.1,1.4 0,0.6 0.1,1.1 0.1,1.4 z"
           class="st10" /></g></g><g
       style="display:none"
       class="st2"
       id="TA"><g
         style="display:inline"
         id="g76"
         class="st3"><g
           id="g74"><path
             style="fill:#5788be"
             id="path72"
             d="M 258.5,452 H 179 c -3.9,0 -7,3.1 -7,7 v 34 c 0,3.9 3.1,7 7,7 h 79.5 c 3.9,0 7,-3.1 7,-7 v -34 c 0,-3.8 -3.2,-7 -7,-7 z m -46.3,10.6 c 0,0.4 -0.1,0.7 -0.2,0.9 -0.1,0.2 -0.2,0.4 -0.3,0.5 -0.1,0.1 -0.3,0.2 -0.4,0.2 h -8.7 v 28 c 0,0.2 -0.1,0.3 -0.2,0.5 -0.1,0.1 -0.3,0.3 -0.6,0.3 -0.3,0.1 -0.6,0.2 -1.1,0.2 -0.5,0.1 -1,0.1 -1.7,0.1 -0.7,0 -1.2,0 -1.7,-0.1 -0.5,-0.1 -0.8,-0.1 -1.1,-0.2 -0.3,-0.1 -0.5,-0.2 -0.6,-0.3 -0.1,-0.1 -0.2,-0.3 -0.2,-0.5 v -28 h -8.7 c -0.2,0 -0.3,-0.1 -0.5,-0.2 -0.1,-0.1 -0.2,-0.3 -0.3,-0.5 -0.1,-0.2 -0.2,-0.5 -0.2,-0.9 0,-0.4 -0.1,-0.8 -0.1,-1.3 0,-0.5 0,-1 0.1,-1.4 0,-0.4 0.1,-0.7 0.2,-0.9 0.1,-0.2 0.2,-0.4 0.3,-0.5 0.1,-0.1 0.3,-0.1 0.5,-0.1 h 24.5 c 0.2,0 0.3,0 0.4,0.1 0.1,0.1 0.2,0.3 0.3,0.5 0.1,0.2 0.2,0.5 0.2,0.9 0,0.4 0.1,0.8 0.1,1.4 0.1,0.5 0,1 0,1.3 z m 39.5,30.3 c -0.2,0.2 -0.5,0.3 -1,0.3 -0.5,0 -1.2,0.1 -2.1,0.1 -0.9,0 -1.6,0 -2.1,0 -0.5,0 -0.9,-0.1 -1.2,-0.2 -0.3,-0.1 -0.5,-0.2 -0.6,-0.3 -0.1,-0.1 -0.2,-0.3 -0.3,-0.6 l -2.3,-7 H 229 l -2.2,6.8 c -0.1,0.3 -0.2,0.5 -0.3,0.6 -0.1,0.2 -0.3,0.3 -0.6,0.4 -0.3,0.1 -0.6,0.2 -1.1,0.2 -0.5,0 -1.1,0.1 -1.9,0.1 -0.8,0 -1.5,0 -1.9,-0.1 -0.5,-0.1 -0.8,-0.2 -1,-0.4 -0.2,-0.2 -0.2,-0.5 -0.2,-0.9 0,-0.4 0.2,-0.9 0.4,-1.5 l 10.7,-30.8 c 0.1,-0.3 0.2,-0.6 0.4,-0.7 0.1,-0.2 0.4,-0.3 0.7,-0.4 0.3,-0.1 0.7,-0.2 1.3,-0.2 0.6,0 1.3,0 2.2,0 1.1,0 1.9,0 2.5,0 0.6,0 1.1,0.1 1.5,0.2 0.3,0.1 0.6,0.2 0.8,0.4 0.2,0.2 0.3,0.5 0.4,0.8 l 10.7,30.8 c 0.2,0.6 0.3,1.2 0.4,1.5 0.1,0.3 0.1,0.7 -0.1,0.9 z m -16.2,-27.9 -4.9,14.8 h 9.9 z"
             class="st10" /></g></g></g><g
       style="display:none"
       class="st2"
       id="TM_copy"><path
         style="display:inline;fill:#5788be"
         id="path79"
         d="M 258.5,452 H 179 c -3.9,0 -7,3.1 -7,7 v 34 c 0,3.9 3.1,7 7,7 h 79.5 c 3.9,0 7,-3.1 7,-7 v -34 c 0,-3.8 -3.2,-7 -7,-7 z m -53.1,10.6 c 0,0.4 -0.1,0.7 -0.2,0.9 -0.1,0.2 -0.2,0.4 -0.3,0.5 -0.1,0.1 -0.3,0.2 -0.4,0.2 h -8.7 v 28 c 0,0.2 -0.1,0.3 -0.2,0.5 -0.1,0.1 -0.3,0.3 -0.6,0.3 -0.3,0.1 -0.6,0.2 -1.1,0.2 -0.5,0.1 -1,0.1 -1.7,0.1 -0.7,0 -1.2,0 -1.7,-0.1 -0.5,-0.1 -0.8,-0.1 -1.1,-0.2 -0.3,-0.1 -0.5,-0.2 -0.6,-0.3 -0.1,-0.1 -0.2,-0.3 -0.2,-0.5 v -28 h -8.7 c -0.2,0 -0.3,-0.1 -0.5,-0.2 -0.1,-0.1 -0.2,-0.3 -0.3,-0.5 -0.1,-0.2 -0.2,-0.5 -0.2,-0.9 0,-0.4 -0.1,-0.8 -0.1,-1.3 0,-0.5 0,-1 0.1,-1.4 0,-0.4 0.1,-0.7 0.2,-0.9 0.1,-0.2 0.2,-0.4 0.3,-0.5 0.1,-0.1 0.3,-0.1 0.5,-0.1 h 24.5 c 0.2,0 0.3,0 0.4,0.1 0.1,0.1 0.2,0.3 0.3,0.5 0.1,0.2 0.2,0.5 0.2,0.9 0,0.4 0.1,0.8 0.1,1.4 0.1,0.5 0.1,1 0,1.3 z m 50.2,29.6 c 0,0.2 0,0.3 -0.1,0.5 -0.1,0.1 -0.3,0.3 -0.5,0.3 -0.3,0.1 -0.6,0.2 -1,0.2 -0.4,0.1 -1,0.1 -1.6,0.1 -0.6,0 -1.2,0 -1.6,-0.1 -0.4,-0.1 -0.8,-0.1 -1,-0.2 -0.3,-0.1 -0.4,-0.2 -0.5,-0.3 -0.1,-0.1 -0.2,-0.3 -0.2,-0.5 V 463.9 H 249 l -10.1,28.3 c -0.1,0.2 -0.2,0.4 -0.3,0.6 -0.2,0.2 -0.4,0.3 -0.7,0.4 -0.3,0.1 -0.6,0.1 -1.1,0.2 -0.4,0 -0.9,0 -1.6,0 -0.6,0 -1.1,0 -1.6,-0.1 -0.4,0 -0.8,-0.1 -1.1,-0.2 -0.3,-0.1 -0.5,-0.2 -0.7,-0.4 -0.2,-0.1 -0.3,-0.3 -0.3,-0.5 l -9.7,-28.3 h -0.1 v 28.3 c 0,0.2 0,0.3 -0.1,0.5 -0.1,0.1 -0.3,0.3 -0.6,0.3 -0.3,0.1 -0.6,0.2 -1,0.2 -0.4,0.1 -1,0.1 -1.6,0.1 -0.6,0 -1.2,0 -1.6,-0.1 -0.4,-0.1 -0.8,-0.1 -1,-0.2 -0.3,-0.1 -0.4,-0.2 -0.5,-0.3 -0.1,-0.1 -0.1,-0.3 -0.1,-0.5 v -31 c 0,-0.9 0.2,-1.6 0.7,-2.1 0.5,-0.5 1.1,-0.7 1.9,-0.7 h 4.6 c 0.8,0 1.5,0.1 2.1,0.2 0.6,0.1 1.1,0.4 1.5,0.7 0.4,0.3 0.8,0.7 1.1,1.2 0.3,0.5 0.5,1.1 0.8,1.9 l 7.5,20.7 h 0.1 l 7.8,-20.7 c 0.2,-0.8 0.5,-1.4 0.8,-1.9 0.3,-0.5 0.6,-0.9 1,-1.3 0.4,-0.3 0.8,-0.6 1.3,-0.7 0.5,-0.1 1.1,-0.2 1.7,-0.2 h 4.8 c 0.5,0 0.9,0.1 1.2,0.2 0.3,0.1 0.6,0.3 0.9,0.6 0.2,0.2 0.4,0.5 0.5,0.9 0.1,0.3 0.2,0.7 0.2,1.2 v 31 z"
         class="st9" /></g></g></svg>
